<?xml version="1.0" encoding="utf-8"?>
<!-- Generator: Adobe Illustrator 22.1.0, SVG Export Plug-In . SVG Version: 6.00 Build 0)  -->
<svg version="1.1" id="Light" xmlns="http://www.w3.org/2000/svg" xmlns:xlink="http://www.w3.org/1999/xlink" x="0px" y="0px"
	 viewBox="0 0 24 24" style="enable-background:new 0 0 24 24;" xml:space="preserve">
<g>
	<title>arrow-up</title>
	<path d="M12,23.744c-0.276,0-0.5-0.224-0.5-0.5V1.575l-10.125,11.5C1.28,13.182,1.143,13.244,1,13.244
		c-0.122,0-0.239-0.044-0.33-0.125c-0.207-0.182-0.227-0.499-0.045-0.706L10.876,0.771c0.042-0.047,0.086-0.092,0.133-0.133
		c0.256-0.225,0.576-0.352,0.927-0.368C11.952,0.267,11.974,0.263,12,0.263c0.012,0,0.028,0.001,0.043,0.004
		c0.004-0.002,0.016-0.002,0.028-0.002c0.424,0.026,0.79,0.205,1.055,0.506l10.25,11.643c0.182,0.207,0.162,0.524-0.045,0.706
		C23.239,13.2,23.121,13.244,23,13.244c-0.144,0-0.28-0.062-0.375-0.169L12.5,1.573v21.671C12.5,23.52,12.275,23.744,12,23.744z"/>
</g>
</svg>
